{
  "asset": { "version": "2.0", "generator": "ChatGPT sample glTF" },
  "scene": 0,
  "scenes": [ { "nodes": [0] } ],
  "nodes": [ { "mesh": 0, "name": "triangulo_prueba" } ],
  "meshes": [
    {
      "name": "triangulo_prueba_mesh",
      "primitives": [
        {
          "attributes": { "POSITION": 0 },
          "indices": 1,
          "mode": 4,
          "material": 0
        }
      ]
    }
  ],
  "materials": [
    {
      "name": "material_prueba",
      "pbrMetallicRoughness": {
        "baseColorFactor": [0.8, 0.8, 0.8, 1.0],
        "metallicFactor": 0.0,
        "roughnessFactor": 0.6
      }
    }
  ],
  "buffers": [
    {
      "uri": "data:application/octet-stream;base64,",
      "byteLength": 36
    },
    {
      "uri": "data:application/octet-stream;base64,",
      "byteLength": 6
    }
  ],
  "bufferViews": [
    { "buffer": 0, "byteOffset": 0, "byteLength": 36, "target": 34962 },
    { "buffer": 1, "byteOffset": 0, "byteLength": 6, "target": 34963 }
  ],
  "accessors": [
    {
      "bufferView": 0,
      "byteOffset": 0,
      "componentType": 5126,
      "count": 3,
      "type": "VEC3",
      "min": [0,0,0],
      "max": [1,1,0]
    },
    {
      "bufferView": 1,
      "byteOffset": 0,
      "componentType": 5123,
      "count": 3,
      "type": "SCALAR"
    }
  ]
}
